<?xml version="1.0" encoding="UTF-8" standalone="no"?>
<svg
   xmlns:dc="http://purl.org/dc/elements/1.1/"
   xmlns:cc="http://creativecommons.org/ns#"
   xmlns:rdf="http://www.w3.org/1999/02/22-rdf-syntax-ns#"
   xmlns:svg="http://www.w3.org/2000/svg"
   xmlns="http://www.w3.org/2000/svg"
   xmlns:sodipodi="http://sodipodi.sourceforge.net/DTD/sodipodi-0.dtd"
   xmlns:inkscape="http://www.inkscape.org/namespaces/inkscape"
   version="1.1"
   x="0px"
   y="0px"
   viewBox="0 0 88.127254 76.990808"
   enable-background="new 0 0 100 100"
   xml:space="preserve"
   id="svg2"
   inkscape:version="0.48.4 r9939"
   width="100%"
   height="100%"
   sodipodi:docname="btn-circle-drone.svg"><metadata
     id="metadata22"><rdf:RDF><cc:Work
         rdf:about=""><dc:format>image/svg+xml</dc:format><dc:type
           rdf:resource="http://purl.org/dc/dcmitype/StillImage" /><dc:title></dc:title></cc:Work></rdf:RDF></metadata><defs
     id="defs20" /><sodipodi:namedview
     pagecolor="#ffffff"
     bordercolor="#666666"
     borderopacity="1"
     objecttolerance="10"
     gridtolerance="10"
     guidetolerance="10"
     inkscape:pageopacity="0"
     inkscape:pageshadow="2"
     inkscape:window-width="2560"
     inkscape:window-height="1031"
     id="namedview18"
     showgrid="false"
     fit-margin-top="0"
     fit-margin-left="0"
     fit-margin-right="0"
     fit-margin-bottom="0"
     inkscape:zoom="1.3350176"
     inkscape:cx="-400.35999"
     inkscape:cy="174.21078"
     inkscape:window-x="0"
     inkscape:window-y="25"
     inkscape:window-maximized="1"
     inkscape:current-layer="svg2" /><g
     id="g3902"
     transform="translate(-4.9727458,-21.7)"
     style="fill:#ffffff;fill-opacity:1;stroke:none;stroke-opacity:1"><path
       d="m 11.9,28.1 c 0.9,-0.3 1.9,-0.6 2.9,-0.8 1,-0.3 2.1,-0.5 3.2,-0.7 1.1,-0.2 2.2,-0.4 3.3,-0.6 1.1,-0.2 2.3,-0.3 3.4,-0.4 0.3,0 0.6,0 0.9,-0.1 0.3,0 0.6,0 0.8,-0.1 0.6,0 1.1,-0.1 1.6,-0.1 0.5,0 1.1,0 1.6,0 0.5,0 1,0 1.5,0 0.5,0 1,0 1.5,0 0.5,0 0.9,0 1.4,0.1 0.9,0.1 1.7,0.1 2.4,0.2 0.7,0.1 1.3,0.2 1.9,0.2 1,0.2 1.6,0.3 1.6,0.3 0,0 -0.1,-0.1 -0.4,-0.2 C 39.3,25.8 38.9,25.5 38.4,25.2 37.9,25 37.3,24.6 36.7,24.3 36.4,24.2 36,24 35.6,23.8 35.2,23.6 34.8,23.5 34.3,23.4 33.9,23.2 33.4,23.1 32.9,23 c -0.5,-0.1 -1,-0.3 -1.5,-0.4 -0.5,-0.1 -1.1,-0.2 -1.6,-0.3 -0.6,-0.1 -1.1,-0.2 -1.7,-0.3 -0.6,-0.1 -1.2,-0.1 -1.8,-0.2 -0.3,0 -0.6,-0.1 -0.9,-0.1 -0.3,0 -0.6,0 -0.9,0 -1.3,0 -2.5,0 -3.7,0.1 -1.2,0.1 -2.5,0.2 -3.7,0.5 -1.2,0.2 -2.4,0.5 -3.5,0.9 -1.1,0.4 -2.2,0.9 -3.2,1.4 -1,0.5 -1.9,1.2 -2.7,1.8 -0.8,0.6 -1.4,1.3 -1.9,2 -0.5,0.7 -0.7,1.5 -0.8,2.1 -0.1,0.6 0.1,1.1 0.2,1.5 0.1,0.3 0.2,0.5 0.2,0.5 0,0 0.1,-0.2 0.3,-0.4 0.2,-0.2 0.5,-0.6 0.8,-0.9 0.3,-0.3 0.7,-0.7 1.2,-1 0.5,-0.4 1,-0.8 1.8,-1.2 0.7,-0.2 1.5,-0.6 2.4,-0.9 z"
       id="path8"
       inkscape:connector-curvature="0"
       style="fill:#ffffff;fill-opacity:1;stroke:none;stroke-opacity:1" /><path
       d="m 54,32.6 c 0,0 0.1,-0.2 0.3,-0.4 0.2,-0.2 0.5,-0.6 0.8,-0.9 0.3,-0.3 0.7,-0.7 1.2,-1 0.5,-0.4 1,-0.8 1.8,-1.2 0.7,-0.4 1.5,-0.7 2.4,-1 0.9,-0.3 1.9,-0.6 2.9,-0.8 1,-0.3 2.1,-0.5 3.2,-0.7 1.1,-0.2 2.2,-0.4 3.3,-0.6 1.1,-0.2 2.3,-0.3 3.4,-0.4 0.3,0 0.6,0 0.9,-0.1 0.3,0 0.6,0 0.8,-0.1 0.6,0 1.1,-0.1 1.6,-0.1 0.5,0 1.1,0 1.6,0 0.5,0 1,0 1.5,0 0.5,0 1,0 1.5,0 0.5,0 0.9,0 1.4,0.1 0.9,0.1 1.7,0.1 2.4,0.2 0.7,0.1 1.3,0.2 1.9,0.2 1,0.2 1.6,0.3 1.6,0.3 0,0 -0.1,-0.1 -0.4,-0.2 C 87.9,25.8 87.5,25.5 87,25.2 86.5,25 85.9,24.6 85.3,24.3 85,24.2 84.6,24 84.2,23.8 83.8,23.6 83.4,23.5 82.9,23.4 82.5,23.2 82,23.1 81.5,23 81,22.9 80.5,22.7 80,22.6 79.5,22.5 78.9,22.4 78.4,22.3 77.8,22.2 77.3,22.1 76.7,22 c -0.6,-0.1 -1.2,-0.1 -1.8,-0.2 -0.3,0 -0.6,-0.1 -0.9,-0.1 -0.3,0 -0.6,0 -0.9,0 -1.3,0 -2.5,0 -3.7,0.1 -1.2,0.1 -2.5,0.2 -3.7,0.5 -1.2,0.2 -2.4,0.5 -3.5,0.9 -1.1,0.4 -2.2,0.9 -3.2,1.4 -1,0.5 -1.9,1.2 -2.7,1.8 -0.8,0.6 -1.4,1.3 -1.9,2 -0.5,0.7 -0.7,1.5 -0.8,2.1 -0.1,0.6 0.1,1.1 0.2,1.5 0.1,0.5 0.2,0.6 0.2,0.6 z"
       id="path10"
       inkscape:connector-curvature="0"
       style="fill:#ffffff;fill-opacity:1;stroke:none;stroke-opacity:1" /><path
       sodipodi:nodetypes="scccccscccccsccccccccccccccccccccscscccscscsccccssccscccscccsscscccccscccccccccccccccccccsssccccccscscsssscccccccccccscscccccccccccccsccccsscs"
       d="m 93,33.7 c 0,-0.2 -0.1,-0.4 -0.1,-0.6 -0.1,-0.3 -0.2,-0.5 -0.2,-0.5 0,0 -0.1,0.1 -0.3,0.4 -0.2,0.2 -0.4,0.6 -0.8,0.9 -0.7,0.7 -1.8,1.3 -3.2,2 -0.7,0.3 -1.5,0.7 -2.4,1 -0.9,0.3 -1.8,0.6 -2.8,0.9 -2,0.5 -4.2,1.1 -6.4,1.5 -0.4,0.1 -0.8,0.1 -1.2,0.2 l 0,0 c -0.2,0 -0.3,0 -0.5,0.1 l -0.1,0 c -0.3,0 -0.6,0.1 -0.9,0.1 C 71.8,40 70.9,40 70.6,40 l 0,0 c 2.2,-0.5 3.5,-1.1 4,-1.3 l 1.5,-3.5 c 0.2,-0.4 0.3,-0.8 0.3,-1.1 l 10.8,0 2.2,-2.7 -13.6,0 C 75.4,30.7 74.7,30.1 73.9,29.8 72,29 69.9,29.7 68.8,31.4 l -11.1,0 -2.2,2.6 12.1,0 -2.5,5.9 c -0.4,0 -0.7,0 -1,-0.1 -0.9,-0.1 -1.7,-0.2 -2.4,-0.2 -0.7,-0.1 -1.3,-0.2 -1.9,-0.3 -1,-0.2 -1.6,-0.3 -1.6,-0.3 0,0 0.1,0.1 0.4,0.2 0.2,0.1 0.6,0.4 1.1,0.6 0.5,0.2 1.1,0.6 1.8,0.8 0.3,0.1 0.7,0.3 1.1,0.5 0.4,0.2 0.8,0.3 1.3,0.4 0.2,0.1 0.4,0.1 0.6,0.2 l -1.6,3.6 c -0.2,0 -0.5,0 -0.7,0 l -7.9,0 c -0.3,-1.8 -2.9,-3.1 -6.1,-3.1 -3.2,0 -5.8,1.4 -6.1,3.1 l -8.1,0 c -0.2,0 -0.5,0 -0.7,0 l -0.7,-1.6 c -1.2,0.1 -2.9,0.1 -4.8,-0.4 l 0,0 c 0.3,0 0.6,0 0.9,0 0.2,0 0.5,0 0.7,0 0.1,0 0.2,0 0.2,0 0.2,0 0.4,0 0.6,-0.1 0.1,0 0.3,0 0.4,0 0.2,0 0.4,0 0.6,-0.1 0.2,0 0.3,0 0.5,-0.1 0.2,0 0.4,0 0.5,-0.1 l 0.1,0 c 0.1,0 0.2,0 0.3,-0.1 1.1,-0.2 2.2,-0.4 3.3,-0.8 1.2,-0.4 2.2,-0.8 3.2,-1.4 1,-0.5 1.9,-1.1 2.7,-1.8 0.8,-0.7 1.4,-1.4 1.8,-2.2 0.4,-0.8 0.6,-1.6 0.7,-2.2 0,-0.3 0,-0.6 0,-0.8 0,-0.2 -0.1,-0.4 -0.1,-0.6 -0.1,-0.3 -0.2,-0.5 -0.2,-0.5 0,0 -0.1,0.1 -0.3,0.4 -0.2,0.2 -0.4,0.6 -0.8,0.9 -0.7,0.7 -1.8,1.3 -3.2,2 -0.7,0.3 -1.5,0.7 -2.4,1 -0.9,0.3 -1.8,0.6 -2.8,0.9 -0.9,0.3 -1.9,0.5 -3,0.8 l 0,0 c -0.4,0.1 -0.8,0.2 -1.1,0.3 -0.8,0.2 -1.5,0.3 -2.3,0.4 -0.4,0.1 -0.7,0.1 -1.1,0.2 l 0,0 c 1.5,-0.5 2.5,-1 3,-1.4 l -1.6,-4 10.2,0 2.2,-2.7 -13.6,0 C 26.1,29.6 24,28.9 22.1,29.7 21.3,30 20.7,30.6 20.2,31.3 l -11.1,0 -2.2,2.7 12.7,0 c 0,0.4 0.1,0.8 0.3,1.1 l 2.1,4.8 c -0.2,0 -0.4,0 -0.6,0 -0.5,0 -1.1,0 -1.6,0 -0.5,0 -1,0 -1.5,0 -0.5,0 -1,0 -1.5,-0.1 -0.5,0 -0.9,0 -1.4,-0.1 -0.9,-0.1 -1.7,-0.2 -2.4,-0.2 -0.7,-0.1 -1.3,-0.2 -1.9,-0.3 -1,-0.2 -1.6,-0.3 -1.6,-0.3 0,0 0.1,0.1 0.4,0.2 0.2,0.1 0.6,0.4 1.1,0.6 0.5,0.2 1.1,0.6 1.8,0.8 0.3,0.1 0.7,0.3 1.1,0.5 0.4,0.2 0.8,0.3 1.3,0.4 0.4,0.2 0.9,0.3 1.4,0.4 0.5,0.1 1,0.3 1.5,0.4 0.5,0.1 1.1,0.2 1.6,0.3 0.5,0.1 1.1,0.2 1.7,0.3 0.6,0.1 1.2,0.1 1.8,0.2 0.1,0 0.3,0 0.4,0 l 2,4.5 -3.7,2.2 c -1.3,0.7 -2,2 -2,3.4 -0.1,0.4 -0.1,0.9 0,1.3 l 3.8,3.2 c 0.3,1.4 1.5,2.4 3,2.3 1.6,-0.1 2.8,-1.4 2.7,-3 l -1.1,-1.4 1.8,-1.1 c 1.3,-0.8 2.8,-1.2 4.3,-1.2 l 14,0 14,0 c 1.5,0 3,0.4 4.3,1.2 l 1.8,1.1 -1.5,1.6 c -0.1,1.4 0.9,2.7 2.3,3 1.5,0.3 3,-0.8 3.3,-2.3 l 3.8,-3.2 c 0,-0.2 0,-0.3 0.1,-0.5 0,-0.3 0,-0.6 0,-0.8 -0.1,-1.3 -0.8,-2.6 -2,-3.4 l -3.7,-2.2 1.7,-3.9 C 71.8,43.6 71,43.4 70.3,43 c 0,0 0.6,0.1 1.5,0.2 0.3,0 0.6,0.1 1,0.1 0.3,0 0.6,0 1,0.1 1.2,0 2.4,0.1 3.6,0 2.5,-0.1 5,-0.4 7.3,-1.2 1.2,-0.4 2.2,-0.8 3.2,-1.4 1,-0.5 1.9,-1.1 2.7,-1.8 0.8,-0.7 1.4,-1.4 1.8,-2.2 C 92.8,36 93,35.2 93.1,34.6 93,34.2 93,33.9 93,33.7 z"
       id="path12"
       inkscape:connector-curvature="0"
       style="fill:#ffffff;fill-opacity:1;stroke:none;stroke-opacity:1" /><g
       transform="matrix(1.1978573,0,0,1.1978573,-6.0755063,32.122424)"
       id="g3099"
       style="fill:#ffffff;fill-opacity:1;stroke:none;stroke-opacity:1"><g
         transform="matrix(0.28241375,0,0,0.28241375,32.694991,13.850799)"
         id="g3897"
         style="fill:#ffffff;fill-opacity:1;stroke:none;stroke-opacity:1"><path
           id="path3087"
           d="m 49.941144,147.7339 -43.9999999,-44 c -1.3,-1.3 -1.3,-3.5 0,-4.900002 1.3,-1.3 3.5,-1.3 4.8999999,0 l 39.1,32.200002 39.2,-32.300002 c 1.3,-1.3 3.5,-1.3 4.9,0 1.3,1.300002 1.3,3.500002 0,4.900002 l -44.1,44.1 z"
           inkscape:connector-curvature="0"
           style="fill:#ffffff;fill-opacity:1;stroke:none;stroke-opacity:1" /><path
           id="path3087-3"
           d="M 49.941144,123.81872 5.9411441,79.818729 c -1.3,-1.3 -1.3,-3.5 0,-4.9 1.3,-1.3 3.5,-1.3 4.8999999,0 l 39.1,32.200001 39.2,-32.300001 c 1.3,-1.3 3.5,-1.3 4.9,0 1.3,1.3 1.3,3.5 0,4.9 l -44.1,44.099991 z"
           inkscape:connector-curvature="0"
           style="fill:#ffffff;fill-opacity:1;stroke:none;stroke-opacity:1" /><path
           id="path3087-1"
           d="M 49.941145,98.924659 5.9411427,54.924661 c -1.3,-1.3 -1.3,-3.5 0,-4.9 1.3,-1.3 3.5,-1.3 4.8999993,0 l 39.100003,32.199998 39.2,-32.299998 c 1.3,-1.3 3.5,-1.3 4.9,0 1.3,1.3 1.3,3.5 0,4.9 l -44.1,44.099998 z"
           inkscape:connector-curvature="0"
           style="fill:#ffffff;fill-opacity:1;stroke:none;stroke-opacity:1" /></g></g></g></svg>